<svg xmlns="http://www.w3.org/2000/svg" viewBox="0 0 420 420" role="img" aria-labelledby="title desc">
  <title id="title">Healix logo</title>
  <desc id="desc">A heart with a medical cross above caring hands and the Healix wordmark.</desc>
  <defs>
    <linearGradient id="heartGradient" x1="0%" y1="0%" x2="100%" y2="100%">
      <stop offset="0%" stop-color="#ff5a5f" />
      <stop offset="100%" stop-color="#ef2027" />
    </linearGradient>
    <linearGradient id="handGradient" x1="0%" y1="0%" x2="100%" y2="100%">
      <stop offset="0%" stop-color="#3fd0df" />
      <stop offset="100%" stop-color="#1a4ea3" />
    </linearGradient>
    <linearGradient id="leafGradient" x1="0%" y1="0%" x2="100%" y2="100%">
      <stop offset="0%" stop-color="#65e0ea" />
      <stop offset="100%" stop-color="#20a9d1" />
    </linearGradient>
    <linearGradient id="wordmarkGradient" x1="0%" y1="0%" x2="100%" y2="0%">
      <stop offset="0%" stop-color="#33c6d9" />
      <stop offset="100%" stop-color="#2578c9" />
    </linearGradient>
  </defs>

  <rect width="420" height="420" fill="none" />

  <g transform="translate(210 118)">
    <rect x="-14" y="-56" width="28" height="62" rx="4" fill="#ef3131" />
    <rect x="-31" y="-39" width="62" height="28" rx="4" fill="#ef3131" />

    <path
      d="M0 64C-13 48-58 18-58-20c0-26 20-43 43-43c16 0 28 8 37 22c9-14 21-22 37-22c23 0 43 17 43 43c0 38-45 68-58 84L0 106L0 64Z"
      fill="url(#heartGradient)"
      stroke="#f36b70"
      stroke-width="3"
      stroke-linejoin="round"
    />
    <text x="0" y="22" text-anchor="middle" font-size="44" font-family="Arial, Helvetica, sans-serif" font-weight="700" fill="#ffffff">H</text>
  </g>

  <g transform="translate(210 196)">
    <path d="M-97 45c14-31 32-49 52-53c18-4 35 8 42 23c-30 5-44 30-67 57l-27-27Z" fill="url(#handGradient)" />
    <path d="M97 45C83 14 65-4 45-8C27-12 10 0 3 15c30 5 44 30 67 57l27-27Z" fill="url(#handGradient)" />
    <path d="M-58 17c-15 11-22 28-28 53c22 13 41 19 65 24c5-22 7-41-5-61c-8-13-19-20-32-16Z" fill="url(#handGradient)" opacity="0.95" />
    <path d="M58 17c15 11 22 28 28 53c-22 13-41 19-65 24c-5-22-7-41 5-61c8-13 19-20 32-16Z" fill="url(#handGradient)" opacity="0.95" />
  </g>

  <g fill="url(#leafGradient)" opacity="0.95">
    <path d="M94 154c18 1 31 10 40 28c-20 3-34-5-43-24Z" />
    <path d="M71 171c19 5 30 18 34 37c-20-2-34-13-39-32Z" />
    <path d="M76 235c23-5 41 0 56 17c-25 7-45 3-60-12Z" />

    <path d="M326 154c-18 1-31 10-40 28c20 3 34-5 43-24Z" />
    <path d="M349 171c-19 5-30 18-34 37c20-2 34-13 39-32Z" />
    <path d="M344 235c-23-5-41 0-56 17c25 7 45 3 60-12Z" />
  </g>

  <text x="210" y="325" text-anchor="middle" font-size="44" font-family="Arial, Helvetica, sans-serif" font-weight="800" letter-spacing="2" fill="url(#wordmarkGradient)">HEALIX</text>
  <text x="210" y="362" text-anchor="middle" font-size="19" font-family="Arial, Helvetica, sans-serif" letter-spacing="8" fill="#ef4a4a">CARE MEETS TECH</text>
</svg>
